<svg xmlns="http://www.w3.org/2000/svg" viewBox="0 96 1200 174" preserveAspectRatio="xMidYMax slice"><defs><linearGradient id="pm-gh-sky-fleet" x1="0" y1="0" x2="0" y2="1"><stop offset="0" stop-color="#f8e0d3" /><stop offset=".45" stop-color="#fbd3ae" /><stop offset=".72" stop-color="#f8b77f" /></linearGradient></defs><rect x="0" y="-600" width="1200" height="870" fill="#f8e0d3" /><rect x="0" y="0" width="1200" height="270" fill="url(#pm-gh-sky-fleet)" /><circle cx="905" cy="146" r="58" fill="#fff1d4" opacity=".28" /><circle cx="905" cy="146" r="40" fill="#fff1d4" opacity=".4" /><circle cx="905" cy="146" r="25" fill="#fff6e2" /><rect x="690" y="118" width="120" height="6" rx="3" fill="#fdeee2" opacity=".8" /><rect x="738" y="129" width="66" height="4" rx="2" fill="#fdeee2" opacity=".7" /><rect x="1010" y="104" width="130" height="6" rx="3" fill="#fdeee2" opacity=".8" /><rect x="1036" y="115" width="60" height="4" rx="2" fill="#fdeee2" opacity=".65" /><path d="M0 176C120 160 220 156 330 168S520 180 640 164S860 142 980 156S1130 172 1200 160V270H0Z" fill="#d6a39b" /><path d="M0 190C150 176 260 182 400 188S620 172 760 184S1000 198 1200 178V270H0Z" fill="#a8667a" /><path d="M0 200C140 188 300 188 460 204S700 214 780 212V270H0Z" fill="#c9683c" /><path d="M500 214C680 198 860 190 1020 196S1160 204 1200 201V270H500Z" fill="#e3a047" /><path d="M150 197l10 -8 10 8v9h-20z" fill="#7a3a2a" /><rect x="174" y="193" width="6" height="13" rx="1.5" fill="#7a3a2a" /><path d="M0 218C200 208 380 210 560 216S900 209 1200 217V270H0Z" fill="#8f9148" /><rect x="57" y="211" width="2" height="7" fill="#5a4030" /><ellipse cx="58" cy="205" rx="3.6" ry="9.5" fill="#55622e" /><rect x="72" y="213.2" width="2" height="5.6" fill="#5a4030" /><ellipse cx="73" cy="208.4" rx="2.9" ry="7.6" fill="#55622e" /><rect x="317" y="207.6" width="2" height="6.3" fill="#5a4030" /><ellipse cx="318" cy="202.2" rx="3.2" ry="8.6" fill="#55622e" /><rect x="435" y="209.5" width="2" height="5.2" fill="#5a4030" /><ellipse cx="436" cy="205" rx="2.7" ry="7.1" fill="#55622e" /><rect x="985" y="208.6" width="2" height="6.3" fill="#5a4030" /><ellipse cx="986" cy="203.2" rx="3.2" ry="8.6" fill="#55622e" /><rect x="1001" y="210.3" width="2" height="4.9" fill="#5a4030" /><ellipse cx="1002" cy="206.1" rx="2.5" ry="6.6" fill="#55622e" /><path d="M-20.2 235.4L-0.2 236L19.8 236.5L39.8 237.2L59.8 237.8L79.8 238.5L99.8 239.2L119.8 239.8L139.8 240.4L159.8 241L179.8 241.6L199.8 242.1L219.9 242.5L239.9 242.9L259.9 243.2L279.9 243.4L300 243.5L320 243.5L340 243.4L360.1 243.3L380.1 243L400.1 242.7L420.2 242.3L440.2 241.9L460.2 241.4L480.2 240.8L500.2 240.2L520.2 239.5L540.2 238.9L560.2 238.2L580.2 237.5L600.2 236.9L620.2 236.3L640.2 235.7L660.2 235.2L680.2 234.7L700.1 234.3L720.1 234L740.1 233.7L760 233.6L780 233.5L800 233.5L819.9 233.6L839.9 233.8L859.9 234.1L879.9 234.4L899.8 234.9L919.9 235.3L951.2 235.2L972 234.8L991.8 234.4L1010.5 233.9L1027.8 233.4L1043.5 232.8L1057.2 232.2L1068.8 231.4L1078.1 230.5L1084.8 229.4L1089.9 227.4L1089.8 217.9L1084.7 216L1076.9 214.6L1070.6 213.5L1067.3 212.7L1067.4 213.3L1066.8 217.3L1067.7 216.8L1070.9 215.8L1075.8 214.7L1081.9 213.7L1088.9 212.7L1096.7 211.7L1104.9 210.8L1113.4 209.9L1121.9 209.1L1130.2 208.2L1136 207.7L1140.8 207.1L1144.8 206.6L1148 206L1150.7 205.4L1153 204.8L1155.1 204.3L1157.1 203.7L1159.2 203.2L1161.7 202.7L1164.6 202.2L1168.2 201.7L1172.6 201.2L1178 200.7L1178 199.3L1172.5 199.5L1168 199.7L1164.3 200L1161.3 200.3L1158.8 200.7L1156.5 201L1154.4 201.3L1152.3 201.7L1150.1 202L1147.5 202.4L1144.3 202.7L1140.4 203.1L1135.7 203.4L1129.8 203.8L1121.5 204.3L1112.9 204.8L1104.4 205.4L1096.1 206L1088.2 206.6L1081 207.3L1074.7 208L1069.4 208.9L1065.3 209.8L1061.8 211.4L1060.5 217.5L1064.1 220.4L1068.6 222L1075.1 223.4L1082.2 225.1L1084.2 226L1084.2 218.9L1082.8 218.9L1077 219.4L1068.2 219.9L1056.8 220.2L1043.1 220.4L1027.5 220.6L1010.3 220.6L991.6 220.6L971.8 220.6L951.2 220.6L920.1 220.3L900.2 219.9L880.1 219.4L860.1 219.1L840.1 218.8L820.1 218.6L800 218.5L780 218.5L760 218.6L739.9 218.7L719.9 219L699.9 219.3L679.8 219.7L659.8 220.2L639.8 220.7L619.8 221.3L599.8 221.9L579.8 222.6L559.8 223.2L539.8 223.9L519.8 224.5L499.8 225.2L479.8 225.8L459.8 226.4L439.8 226.9L419.8 227.3L399.9 227.7L379.9 228L359.9 228.3L340 228.4L320 228.5L300 228.5L280.1 228.4L260.1 228.2L240.1 227.9L220.1 227.5L200.2 227.1L180.2 226.6L160.2 226L140.2 225.5L120.2 224.8L100.2 224.2L80.2 223.5L60.2 222.8L40.2 222.2L20.2 221.6L0.2 221L-19.8 220.4Z" fill="#f6dfc4" /><path d="M10 228.8L32 229.4M54 230.1L76 230.9M98 231.6L120 232.3M142 233L164 233.7M186 234.2L208 234.8M230 235.2L252 235.6M274 235.8L296 236M318 236L340 235.9M362 235.8L384 235.5M406 235.1L428 234.7M450 234.1L472 233.5M494 232.9L516 232.2M538 231.4L560 230.7M582 230L604 229.3M626 228.6L648 228M670 227.4L692 227M714 226.6L736 226.3M758 226.1L780 226M802 226L824 226.2M846 226.4L868 226.7M890 227.1L912 227.6" fill="none" stroke="#e2b98f" stroke-width="1.6" stroke-linecap="round" /><g transform="translate(452 236.7) rotate(-1.8) scale(0.56)"><ellipse cx="66" cy="5" rx="104" ry="4.6" fill="#3a2230" opacity=".22" /><circle cx="-12" cy="-3" r="5" fill="#ecd0b2" /><circle cx="-25" cy="-7" r="7" fill="#ecd0b2" opacity=".7" /><circle cx="-43" cy="-10" r="9" fill="#ecd0b2" opacity=".4" /><ellipse cx="9" cy="-56" rx="8.6" ry="10.1" fill="#d9601c" /><ellipse cx="19" cy="-56" rx="8.6" ry="10.1" fill="#d9601c" /><ellipse cx="14" cy="-56" rx="7.2" ry="11" fill="#f08a3c" /><rect x="12.8" y="-70" width="2.4" height="4" rx="1" fill="#6c7a36" /><ellipse cx="31.5" cy="-58" rx="9.4" ry="10.9" fill="#d9601c" /><ellipse cx="42.5" cy="-58" rx="9.4" ry="10.9" fill="#d9601c" /><ellipse cx="37" cy="-58" rx="7.8" ry="12" fill="#f08a3c" /><rect x="35.8" y="-73" width="2.4" height="4" rx="1" fill="#6c7a36" /><ellipse cx="55.8" cy="-57" rx="9" ry="10.5" fill="#d9601c" /><ellipse cx="66.3" cy="-57" rx="9" ry="10.5" fill="#d9601c" /><ellipse cx="61" cy="-57" rx="7.5" ry="11.5" fill="#f08a3c" /><rect x="59.8" y="-71.5" width="2.4" height="4" rx="1" fill="#6c7a36" /><ellipse cx="78" cy="-55" rx="8.6" ry="10.1" fill="#d9601c" /><ellipse cx="88" cy="-55" rx="8.6" ry="10.1" fill="#d9601c" /><ellipse cx="83" cy="-55" rx="7.2" ry="11" fill="#f08a3c" /><rect x="81.8" y="-69" width="2.4" height="4" rx="1" fill="#6c7a36" /><ellipse cx="20.2" cy="-73" rx="8.3" ry="9.7" fill="#d9601c" /><ellipse cx="29.8" cy="-73" rx="8.3" ry="9.7" fill="#d9601c" /><ellipse cx="25" cy="-73" rx="6.9" ry="10.6" fill="#f08a3c" /><rect x="23.8" y="-86.6" width="2.4" height="4" rx="1" fill="#6c7a36" /><ellipse cx="43.8" cy="-76" rx="9" ry="10.5" fill="#d9601c" /><ellipse cx="54.3" cy="-76" rx="9" ry="10.5" fill="#d9601c" /><ellipse cx="49" cy="-76" rx="7.5" ry="11.5" fill="#f08a3c" /><rect x="47.8" y="-90.5" width="2.4" height="4" rx="1" fill="#6c7a36" /><ellipse cx="67.2" cy="-73" rx="8.3" ry="9.7" fill="#d9601c" /><ellipse cx="76.8" cy="-73" rx="8.3" ry="9.7" fill="#d9601c" /><ellipse cx="72" cy="-73" rx="6.9" ry="10.6" fill="#f08a3c" /><rect x="70.8" y="-86.6" width="2.4" height="4" rx="1" fill="#6c7a36" /><ellipse cx="33.6" cy="-90" rx="7.6" ry="8.8" fill="#d9601c" /><ellipse cx="42.4" cy="-90" rx="7.6" ry="8.8" fill="#d9601c" /><ellipse cx="38" cy="-90" rx="6.3" ry="9.7" fill="#f08a3c" /><rect x="36.8" y="-102.7" width="2.4" height="4" rx="1" fill="#6c7a36" /><ellipse cx="55.4" cy="-91" rx="7.9" ry="9.2" fill="#d9601c" /><ellipse cx="64.6" cy="-91" rx="7.9" ry="9.2" fill="#d9601c" /><ellipse cx="60" cy="-91" rx="6.6" ry="10.1" fill="#f08a3c" /><rect x="58.8" y="-104.1" width="2.4" height="4" rx="1" fill="#6c7a36" /><rect x="-2" y="-52" width="100" height="27" rx="3" fill="#4a2638" /><rect x="5" y="-64" width="5" height="38" rx="2" fill="#3b1f2e" /><rect x="34" y="-64" width="5" height="38" rx="2" fill="#3b1f2e" /><rect x="63" y="-64" width="5" height="38" rx="2" fill="#3b1f2e" /><rect x="90" y="-64" width="5" height="38" rx="2" fill="#3b1f2e" /><rect x="-2" y="-44" width="100" height="3" fill="#6a3c4f" /><path d="M102 -22V-72Q102 -80 110 -80H130Q137 -80 141 -73L152 -52H164Q174 -52 174 -42V-22Z" fill="#3b1f2e" /><path d="M110 -72H129Q132 -72 134 -69L142 -53H110Z" fill="#fbd9b0" /><rect x="-6" y="-26" width="182" height="9" rx="3" fill="#3b1f2e" /><circle cx="171" cy="-40" r="3.4" fill="#ffe9b8" /><circle cx="28" cy="-10" r="14" fill="#2e1824" /><circle cx="28" cy="-10" r="5.5" fill="#e9c9a8" /><circle cx="140" cy="-10" r="14" fill="#2e1824" /><circle cx="140" cy="-10" r="5.5" fill="#e9c9a8" /></g><g transform="translate(628 230.9) rotate(-1.3) scale(0.56)"><ellipse cx="66" cy="5" rx="104" ry="4.6" fill="#3a2230" opacity=".22" /><ellipse cx="9" cy="-56" rx="8.6" ry="10.1" fill="#d9601c" /><ellipse cx="19" cy="-56" rx="8.6" ry="10.1" fill="#d9601c" /><ellipse cx="14" cy="-56" rx="7.2" ry="11" fill="#f08a3c" /><rect x="12.8" y="-70" width="2.4" height="4" rx="1" fill="#6c7a36" /><ellipse cx="31.5" cy="-58" rx="9.4" ry="10.9" fill="#d9601c" /><ellipse cx="42.5" cy="-58" rx="9.4" ry="10.9" fill="#d9601c" /><ellipse cx="37" cy="-58" rx="7.8" ry="12" fill="#f08a3c" /><rect x="35.8" y="-73" width="2.4" height="4" rx="1" fill="#6c7a36" /><ellipse cx="55.8" cy="-57" rx="9" ry="10.5" fill="#d9601c" /><ellipse cx="66.3" cy="-57" rx="9" ry="10.5" fill="#d9601c" /><ellipse cx="61" cy="-57" rx="7.5" ry="11.5" fill="#f08a3c" /><rect x="59.8" y="-71.5" width="2.4" height="4" rx="1" fill="#6c7a36" /><ellipse cx="78" cy="-55" rx="8.6" ry="10.1" fill="#d9601c" /><ellipse cx="88" cy="-55" rx="8.6" ry="10.1" fill="#d9601c" /><ellipse cx="83" cy="-55" rx="7.2" ry="11" fill="#f08a3c" /><rect x="81.8" y="-69" width="2.4" height="4" rx="1" fill="#6c7a36" /><ellipse cx="20.2" cy="-73" rx="8.3" ry="9.7" fill="#d9601c" /><ellipse cx="29.8" cy="-73" rx="8.3" ry="9.7" fill="#d9601c" /><ellipse cx="25" cy="-73" rx="6.9" ry="10.6" fill="#f08a3c" /><rect x="23.8" y="-86.6" width="2.4" height="4" rx="1" fill="#6c7a36" /><ellipse cx="43.8" cy="-76" rx="9" ry="10.5" fill="#d9601c" /><ellipse cx="54.3" cy="-76" rx="9" ry="10.5" fill="#d9601c" /><ellipse cx="49" cy="-76" rx="7.5" ry="11.5" fill="#f08a3c" /><rect x="47.8" y="-90.5" width="2.4" height="4" rx="1" fill="#6c7a36" /><ellipse cx="67.2" cy="-73" rx="8.3" ry="9.7" fill="#d9601c" /><ellipse cx="76.8" cy="-73" rx="8.3" ry="9.7" fill="#d9601c" /><ellipse cx="72" cy="-73" rx="6.9" ry="10.6" fill="#f08a3c" /><rect x="70.8" y="-86.6" width="2.4" height="4" rx="1" fill="#6c7a36" /><ellipse cx="33.6" cy="-90" rx="7.6" ry="8.8" fill="#d9601c" /><ellipse cx="42.4" cy="-90" rx="7.6" ry="8.8" fill="#d9601c" /><ellipse cx="38" cy="-90" rx="6.3" ry="9.7" fill="#f08a3c" /><rect x="36.8" y="-102.7" width="2.4" height="4" rx="1" fill="#6c7a36" /><ellipse cx="55.4" cy="-91" rx="7.9" ry="9.2" fill="#d9601c" /><ellipse cx="64.6" cy="-91" rx="7.9" ry="9.2" fill="#d9601c" /><ellipse cx="60" cy="-91" rx="6.6" ry="10.1" fill="#f08a3c" /><rect x="58.8" y="-104.1" width="2.4" height="4" rx="1" fill="#6c7a36" /><rect x="-2" y="-52" width="100" height="27" rx="3" fill="#4a2638" /><rect x="5" y="-64" width="5" height="38" rx="2" fill="#3b1f2e" /><rect x="34" y="-64" width="5" height="38" rx="2" fill="#3b1f2e" /><rect x="63" y="-64" width="5" height="38" rx="2" fill="#3b1f2e" /><rect x="90" y="-64" width="5" height="38" rx="2" fill="#3b1f2e" /><rect x="-2" y="-44" width="100" height="3" fill="#6a3c4f" /><path d="M102 -22V-72Q102 -80 110 -80H130Q137 -80 141 -73L152 -52H164Q174 -52 174 -42V-22Z" fill="#3b1f2e" /><path d="M110 -72H129Q132 -72 134 -69L142 -53H110Z" fill="#fbd9b0" /><rect x="-6" y="-26" width="182" height="9" rx="3" fill="#3b1f2e" /><circle cx="171" cy="-40" r="3.4" fill="#ffe9b8" /><circle cx="28" cy="-10" r="14" fill="#2e1824" /><circle cx="28" cy="-10" r="5.5" fill="#e9c9a8" /><circle cx="140" cy="-10" r="14" fill="#2e1824" /><circle cx="140" cy="-10" r="5.5" fill="#e9c9a8" /></g><g transform="translate(804 228.3) rotate(0.8) scale(0.56)"><ellipse cx="66" cy="5" rx="104" ry="4.6" fill="#3a2230" opacity=".22" /><ellipse cx="9" cy="-56" rx="8.6" ry="10.1" fill="#d9601c" /><ellipse cx="19" cy="-56" rx="8.6" ry="10.1" fill="#d9601c" /><ellipse cx="14" cy="-56" rx="7.2" ry="11" fill="#f08a3c" /><rect x="12.8" y="-70" width="2.4" height="4" rx="1" fill="#6c7a36" /><ellipse cx="31.5" cy="-58" rx="9.4" ry="10.9" fill="#d9601c" /><ellipse cx="42.5" cy="-58" rx="9.4" ry="10.9" fill="#d9601c" /><ellipse cx="37" cy="-58" rx="7.8" ry="12" fill="#f08a3c" /><rect x="35.8" y="-73" width="2.4" height="4" rx="1" fill="#6c7a36" /><ellipse cx="55.8" cy="-57" rx="9" ry="10.5" fill="#d9601c" /><ellipse cx="66.3" cy="-57" rx="9" ry="10.5" fill="#d9601c" /><ellipse cx="61" cy="-57" rx="7.5" ry="11.5" fill="#f08a3c" /><rect x="59.8" y="-71.5" width="2.4" height="4" rx="1" fill="#6c7a36" /><ellipse cx="78" cy="-55" rx="8.6" ry="10.1" fill="#d9601c" /><ellipse cx="88" cy="-55" rx="8.6" ry="10.1" fill="#d9601c" /><ellipse cx="83" cy="-55" rx="7.2" ry="11" fill="#f08a3c" /><rect x="81.8" y="-69" width="2.4" height="4" rx="1" fill="#6c7a36" /><ellipse cx="20.2" cy="-73" rx="8.3" ry="9.7" fill="#d9601c" /><ellipse cx="29.8" cy="-73" rx="8.3" ry="9.7" fill="#d9601c" /><ellipse cx="25" cy="-73" rx="6.9" ry="10.6" fill="#f08a3c" /><rect x="23.8" y="-86.6" width="2.4" height="4" rx="1" fill="#6c7a36" /><ellipse cx="43.8" cy="-76" rx="9" ry="10.5" fill="#d9601c" /><ellipse cx="54.3" cy="-76" rx="9" ry="10.5" fill="#d9601c" /><ellipse cx="49" cy="-76" rx="7.5" ry="11.5" fill="#f08a3c" /><rect x="47.8" y="-90.5" width="2.4" height="4" rx="1" fill="#6c7a36" /><ellipse cx="67.2" cy="-73" rx="8.3" ry="9.7" fill="#d9601c" /><ellipse cx="76.8" cy="-73" rx="8.3" ry="9.7" fill="#d9601c" /><ellipse cx="72" cy="-73" rx="6.9" ry="10.6" fill="#f08a3c" /><rect x="70.8" y="-86.6" width="2.4" height="4" rx="1" fill="#6c7a36" /><ellipse cx="33.6" cy="-90" rx="7.6" ry="8.8" fill="#d9601c" /><ellipse cx="42.4" cy="-90" rx="7.6" ry="8.8" fill="#d9601c" /><ellipse cx="38" cy="-90" rx="6.3" ry="9.7" fill="#f08a3c" /><rect x="36.8" y="-102.7" width="2.4" height="4" rx="1" fill="#6c7a36" /><ellipse cx="55.4" cy="-91" rx="7.9" ry="9.2" fill="#d9601c" /><ellipse cx="64.6" cy="-91" rx="7.9" ry="9.2" fill="#d9601c" /><ellipse cx="60" cy="-91" rx="6.6" ry="10.1" fill="#f08a3c" /><rect x="58.8" y="-104.1" width="2.4" height="4" rx="1" fill="#6c7a36" /><rect x="-2" y="-52" width="100" height="27" rx="3" fill="#4a2638" /><rect x="5" y="-64" width="5" height="38" rx="2" fill="#3b1f2e" /><rect x="34" y="-64" width="5" height="38" rx="2" fill="#3b1f2e" /><rect x="63" y="-64" width="5" height="38" rx="2" fill="#3b1f2e" /><rect x="90" y="-64" width="5" height="38" rx="2" fill="#3b1f2e" /><rect x="-2" y="-44" width="100" height="3" fill="#6a3c4f" /><path d="M102 -22V-72Q102 -80 110 -80H130Q137 -80 141 -73L152 -52H164Q174 -52 174 -42V-22Z" fill="#3b1f2e" /><path d="M110 -72H129Q132 -72 134 -69L142 -53H110Z" fill="#fbd9b0" /><rect x="-6" y="-26" width="182" height="9" rx="3" fill="#3b1f2e" /><circle cx="171" cy="-40" r="3.4" fill="#ffe9b8" /><circle cx="28" cy="-10" r="14" fill="#2e1824" /><circle cx="28" cy="-10" r="5.5" fill="#e9c9a8" /><circle cx="140" cy="-10" r="14" fill="#2e1824" /><circle cx="140" cy="-10" r="5.5" fill="#e9c9a8" /></g><path d="M0 254L40 254.5L80 255L120 255.5L160 255.9L200 256.2L240 256.4L280 256.5L320 256.5L360 256.4L400 256.2L440 255.8L480 255.4L520 255L560 254.5L600 254L640 253.4L680 252.9L720 252.5L760 252.1L800 251.8L840 251.6L880 251.5L920 251.5L960 251.6L1000 251.9L1040 252.2L1080 252.6L1120 253.1L1160 253.6L1200 254.1V270H0Z" fill="#5b3445" /><ellipse cx="19.3" cy="254.2" rx="4" ry="1.8" fill="#7f8a45" /><ellipse cx="12.1" cy="252.7" rx="3.2" ry="3.6" fill="#d9601c" /><ellipse cx="15.9" cy="252.7" rx="3.2" ry="3.6" fill="#d9601c" /><ellipse cx="14" cy="252.7" rx="2.6" ry="4" fill="#f08a3c" /><ellipse cx="57.8" cy="254.7" rx="4" ry="1.8" fill="#7f8a45" /><ellipse cx="50.6" cy="253.2" rx="3.2" ry="3.6" fill="#d9601c" /><ellipse cx="54.4" cy="253.2" rx="3.2" ry="3.6" fill="#d9601c" /><ellipse cx="52.5" cy="253.2" rx="2.6" ry="4" fill="#f08a3c" /><ellipse cx="96.3" cy="255.2" rx="4" ry="1.8" fill="#7f8a45" /><ellipse cx="89.1" cy="253.7" rx="3.2" ry="3.6" fill="#d9601c" /><ellipse cx="92.9" cy="253.7" rx="3.2" ry="3.6" fill="#d9601c" /><ellipse cx="91" cy="253.7" rx="2.6" ry="4" fill="#f08a3c" /><ellipse cx="134.8" cy="255.6" rx="4" ry="1.8" fill="#7f8a45" /><ellipse cx="127.6" cy="254.1" rx="3.2" ry="3.6" fill="#d9601c" /><ellipse cx="131.4" cy="254.1" rx="3.2" ry="3.6" fill="#d9601c" /><ellipse cx="129.5" cy="254.1" rx="2.6" ry="4" fill="#f08a3c" /><ellipse cx="250.3" cy="256.4" rx="4" ry="1.8" fill="#7f8a45" /><ellipse cx="243.1" cy="254.9" rx="3.2" ry="3.6" fill="#d9601c" /><ellipse cx="246.9" cy="254.9" rx="3.2" ry="3.6" fill="#d9601c" /><ellipse cx="245" cy="254.9" rx="2.6" ry="4" fill="#f08a3c" /><ellipse cx="288.8" cy="256.5" rx="4" ry="1.8" fill="#7f8a45" /><ellipse cx="281.6" cy="255" rx="3.2" ry="3.6" fill="#d9601c" /><ellipse cx="285.4" cy="255" rx="3.2" ry="3.6" fill="#d9601c" /><ellipse cx="283.5" cy="255" rx="2.6" ry="4" fill="#f08a3c" /><ellipse cx="327.3" cy="256.5" rx="4" ry="1.8" fill="#7f8a45" /><ellipse cx="320.1" cy="255" rx="3.2" ry="3.6" fill="#d9601c" /><ellipse cx="323.9" cy="255" rx="3.2" ry="3.6" fill="#d9601c" /><ellipse cx="322" cy="255" rx="2.6" ry="4" fill="#f08a3c" /><ellipse cx="365.8" cy="256.4" rx="4" ry="1.8" fill="#7f8a45" /><ellipse cx="358.6" cy="254.9" rx="3.2" ry="3.6" fill="#d9601c" /><ellipse cx="362.4" cy="254.9" rx="3.2" ry="3.6" fill="#d9601c" /><ellipse cx="360.5" cy="254.9" rx="2.6" ry="4" fill="#f08a3c" /><ellipse cx="404.3" cy="256.2" rx="4" ry="1.8" fill="#7f8a45" /><ellipse cx="397.1" cy="254.7" rx="3.2" ry="3.6" fill="#d9601c" /><ellipse cx="400.9" cy="254.7" rx="3.2" ry="3.6" fill="#d9601c" /><ellipse cx="399" cy="254.7" rx="2.6" ry="4" fill="#f08a3c" /><ellipse cx="481.3" cy="255.5" rx="4" ry="1.8" fill="#7f8a45" /><ellipse cx="474.1" cy="254" rx="3.2" ry="3.6" fill="#d9601c" /><ellipse cx="477.9" cy="254" rx="3.2" ry="3.6" fill="#d9601c" /><ellipse cx="476" cy="254" rx="2.6" ry="4" fill="#f08a3c" /><ellipse cx="519.8" cy="255.1" rx="4" ry="1.8" fill="#7f8a45" /><ellipse cx="512.6" cy="253.6" rx="3.2" ry="3.6" fill="#d9601c" /><ellipse cx="516.4" cy="253.6" rx="3.2" ry="3.6" fill="#d9601c" /><ellipse cx="514.5" cy="253.6" rx="2.6" ry="4" fill="#f08a3c" /><ellipse cx="558.3" cy="254.6" rx="4" ry="1.8" fill="#7f8a45" /><ellipse cx="551.1" cy="253.1" rx="3.2" ry="3.6" fill="#d9601c" /><ellipse cx="554.9" cy="253.1" rx="3.2" ry="3.6" fill="#d9601c" /><ellipse cx="553" cy="253.1" rx="2.6" ry="4" fill="#f08a3c" /><ellipse cx="596.8" cy="254.1" rx="4" ry="1.8" fill="#7f8a45" /><ellipse cx="589.6" cy="252.6" rx="3.2" ry="3.6" fill="#d9601c" /><ellipse cx="593.4" cy="252.6" rx="3.2" ry="3.6" fill="#d9601c" /><ellipse cx="591.5" cy="252.6" rx="2.6" ry="4" fill="#f08a3c" /><ellipse cx="635.3" cy="253.6" rx="4" ry="1.8" fill="#7f8a45" /><ellipse cx="628.1" cy="252.1" rx="3.2" ry="3.6" fill="#d9601c" /><ellipse cx="631.9" cy="252.1" rx="3.2" ry="3.6" fill="#d9601c" /><ellipse cx="630" cy="252.1" rx="2.6" ry="4" fill="#f08a3c" /><ellipse cx="750.8" cy="252.2" rx="4" ry="1.8" fill="#7f8a45" /><ellipse cx="743.6" cy="250.7" rx="3.2" ry="3.6" fill="#d9601c" /><ellipse cx="747.4" cy="250.7" rx="3.2" ry="3.6" fill="#d9601c" /><ellipse cx="745.5" cy="250.7" rx="2.6" ry="4" fill="#f08a3c" /><ellipse cx="789.3" cy="251.9" rx="4" ry="1.8" fill="#7f8a45" /><ellipse cx="782.1" cy="250.4" rx="3.2" ry="3.6" fill="#d9601c" /><ellipse cx="785.9" cy="250.4" rx="3.2" ry="3.6" fill="#d9601c" /><ellipse cx="784" cy="250.4" rx="2.6" ry="4" fill="#f08a3c" /><ellipse cx="827.8" cy="251.7" rx="4" ry="1.8" fill="#7f8a45" /><ellipse cx="820.6" cy="250.2" rx="3.2" ry="3.6" fill="#d9601c" /><ellipse cx="824.4" cy="250.2" rx="3.2" ry="3.6" fill="#d9601c" /><ellipse cx="822.5" cy="250.2" rx="2.6" ry="4" fill="#f08a3c" /><ellipse cx="866.3" cy="251.5" rx="4" ry="1.8" fill="#7f8a45" /><ellipse cx="859.1" cy="250" rx="3.2" ry="3.6" fill="#d9601c" /><ellipse cx="862.9" cy="250" rx="3.2" ry="3.6" fill="#d9601c" /><ellipse cx="861" cy="250" rx="2.6" ry="4" fill="#f08a3c" /><ellipse cx="904.8" cy="251.5" rx="4" ry="1.8" fill="#7f8a45" /><ellipse cx="897.6" cy="250" rx="3.2" ry="3.6" fill="#d9601c" /><ellipse cx="901.4" cy="250" rx="3.2" ry="3.6" fill="#d9601c" /><ellipse cx="899.5" cy="250" rx="2.6" ry="4" fill="#f08a3c" /><ellipse cx="981.8" cy="251.7" rx="4" ry="1.8" fill="#7f8a45" /><ellipse cx="974.6" cy="250.2" rx="3.2" ry="3.6" fill="#d9601c" /><ellipse cx="978.4" cy="250.2" rx="3.2" ry="3.6" fill="#d9601c" /><ellipse cx="976.5" cy="250.2" rx="2.6" ry="4" fill="#f08a3c" /><ellipse cx="1020.3" cy="252" rx="4" ry="1.8" fill="#7f8a45" /><ellipse cx="1013.1" cy="250.5" rx="3.2" ry="3.6" fill="#d9601c" /><ellipse cx="1016.9" cy="250.5" rx="3.2" ry="3.6" fill="#d9601c" /><ellipse cx="1015" cy="250.5" rx="2.6" ry="4" fill="#f08a3c" /><ellipse cx="1058.8" cy="252.3" rx="4" ry="1.8" fill="#7f8a45" /><ellipse cx="1051.6" cy="250.8" rx="3.2" ry="3.6" fill="#d9601c" /><ellipse cx="1055.4" cy="250.8" rx="3.2" ry="3.6" fill="#d9601c" /><ellipse cx="1053.5" cy="250.8" rx="2.6" ry="4" fill="#f08a3c" /><ellipse cx="1097.3" cy="252.7" rx="4" ry="1.8" fill="#7f8a45" /><ellipse cx="1090.1" cy="251.2" rx="3.2" ry="3.6" fill="#d9601c" /><ellipse cx="1093.9" cy="251.2" rx="3.2" ry="3.6" fill="#d9601c" /><ellipse cx="1092" cy="251.2" rx="2.6" ry="4" fill="#f08a3c" /><ellipse cx="1174.3" cy="253.7" rx="4" ry="1.8" fill="#7f8a45" /><ellipse cx="1167.1" cy="252.2" rx="3.2" ry="3.6" fill="#d9601c" /><ellipse cx="1170.9" cy="252.2" rx="3.2" ry="3.6" fill="#d9601c" /><ellipse cx="1169" cy="252.2" rx="2.6" ry="4" fill="#f08a3c" /><ellipse cx="1212.8" cy="254.2" rx="4" ry="1.8" fill="#7f8a45" /><ellipse cx="1205.6" cy="252.7" rx="3.2" ry="3.6" fill="#d9601c" /><ellipse cx="1209.4" cy="252.7" rx="3.2" ry="3.6" fill="#d9601c" /><ellipse cx="1207.5" cy="252.7" rx="2.6" ry="4" fill="#f08a3c" /></svg>